<?xml version="1.0" encoding="UTF-8" standalone="no" ?>
<!DOCTYPE svg PUBLIC "-//W3C//DTD SVG 1.1//EN" "http://www.w3.org/Graphics/SVG/1.1/DTD/svg11.dtd">
<svg xmlns="http://www.w3.org/2000/svg" xmlns:xlink="http://www.w3.org/1999/xlink" version="1.1" width="400" height="510" viewBox="0 0 400 510" xml:space="preserve">
<desc>Created with Fabric.js 4.6.0</desc>
<defs>
</defs>
<g transform="matrix(0.13 0 0 -0.13 200.4 255)" id="42i4Yi-p7qg8vYVU3sXnt"  >
<path style="stroke: none; stroke-width: 1; stroke-dasharray: none; stroke-linecap: butt; stroke-dashoffset: 0; stroke-linejoin: miter; stroke-miterlimit: 4; fill: rgb(204,201,220); fill-rule: nonzero; opacity: 1;" vector-effect="non-scaling-stroke"  transform=" translate(-1999.79, -1934.93)" d="M 1560 3860 C 1560 3852 1576 3787 1595 3717 C 1629 3594 1630 3583 1630 3417 L 1630 3245 L 1559 3365 C 1460 3532 1457 3540 1421 3680 C 1403 3749 1384 3810 1378 3815 C 1372 3822 1369 3818 1371 3805 C 1374 3784 1363 3731 1349 3692 C 1340 3669 1340 3669 1290 3712 C 1263 3736 1241 3761 1240 3768 C 1240 3774 1235 3780 1229 3780 C 1223 3780 1221 3773 1224 3764 C 1227 3755 1242 3702 1257 3646 C 1281 3559 1285 3519 1290 3352 C 1293 3247 1293 3160 1290 3160 C 1287 3161 1248 3226 1203 3306 C 1130 3435 1117 3466 1085 3588 C 1065 3663 1047 3726 1044 3729 C 1031 3743 1035 3714 1061 3615 C 1077 3555 1090 3501 1090 3495 C 1090 3490 1052 3523 1005 3570 C 959 3616 917 3651 913 3647 C 909 3643 954 3591 1012 3532 C 1109 3435 1126 3411 1208 3265 C 1297 3108 1300 3102 1354 2898 C 1385 2785 1410 2686 1410 2679 C 1410 2673 1337 2741 1247 2831 L 1084 2995 L 988 3165 C 900 3321 890 3346 859 3465 C 825 3601 823 3606 815 3598 C 812 3595 823 3542 840 3479 C 856 3416 870 3361 870 3355 C 870 3350 830 3386 780 3435 C 731 3484 688 3521 685 3518 C 681 3515 724 3468 779 3415 C 868 3328 889 3301 964 3171 C 1011 3091 1047 3024 1046 3022 C 1044 3020 982 3053 909 3096 C 792 3162 761 3186 663 3283 C 601 3345 550 3390 550 3385 C 550 3379 586 3335 631 3287 C 675 3239 708 3200 703 3200 C 699 3200 648 3214 590 3230 C 476 3262 461 3265 475 3251 C 481 3246 543 3226 615 3206 C 729 3174 764 3159 910 3075 L 1075 2981 L 1256 2798 L 1437 2615 L 1587 2355 C 1670 2212 1744 2082 1752 2065 C 1761 2049 1818 1848 1879 1618 L 1990 1202 L 1990 601 C 1990 207 1993 0 2000 0 C 2007 0 2010 205 2010 595 L 2010 1190 L 2124 1624 C 2225 2004 2243 2065 2277 2121 C 2299 2156 2373 2284 2443 2405 L 2569 2625 L 2752 2806 C 2934 2986 2936 2988 3093 3079 C 3233 3159 3265 3173 3383 3206 C 3456 3225 3519 3246 3524 3251 C 3539 3265 3525 3262 3410 3230 C 3352 3213 3301 3200 3296 3200 C 3292 3200 3325 3241 3370 3290 C 3416 3340 3451 3383 3448 3385 C 3445 3388 3396 3342 3339 3283 C 3244 3185 3221 3168 3096 3097 C 3020 3054 2956 3020 2955 3022 C 2953 3024 2987 3088 3031 3165 C 3101 3288 3124 3318 3218 3413 C 3277 3472 3320 3520 3315 3520 C 3310 3520 3266 3481 3218 3433 C 3169 3385 3130 3350 3130 3356 C 3130 3362 3143 3419 3160 3481 C 3194 3609 3193 3607 3181 3594 C 3176 3589 3156 3524 3137 3450 C 3104 3325 3094 3303 3005 3150 C 2912 2988 2906 2982 2752 2828 C 2666 2741 2593 2670 2589 2670 C 2586 2670 2611 2772 2645 2898 L 2707 3125 L 2795 3275 C 2871 3406 2895 3439 2988 3532 C 3046 3591 3091 3643 3086 3647 C 3082 3651 3040 3615 2993 3567 C 2946 3519 2906 3481 2905 3482 C 2903 3484 2917 3538 2935 3603 C 2953 3668 2964 3723 2960 3725 C 2956 3727 2937 3666 2916 3590 C 2883 3464 2871 3435 2797 3305 C 2752 3226 2713 3161 2710 3160 C 2707 3160 2706 3242 2708 3342 C 2710 3514 2712 3532 2744 3648 C 2762 3715 2773 3773 2769 3776 C 2764 3779 2760 3776 2760 3770 C 2760 3764 2738 3736 2710 3708 C 2676 3671 2660 3660 2656 3670 C 2635 3735 2622 3795 2627 3809 C 2631 3820 2630 3822 2623 3815 C 2617 3810 2597 3744 2577 3670 C 2545 3548 2534 3522 2458 3392 L 2375 3250 L 2372 3420 C 2370 3589 2370 3593 2405 3719 C 2440 3847 2448 3891 2431 3860 C 2426 3852 2410 3797 2394 3738 C 2378 3678 2363 3630 2360 3630 C 2357 3630 2341 3682 2326 3745 C 2310 3809 2293 3863 2288 3866 C 2277 3873 2276 3880 2315 3729 C 2349 3598 2350 3590 2350 3400 L 2350 3205 L 2293 2988 C 2261 2868 2233 2770 2230 2770 C 2227 2770 2198 2871 2167 2994 L 2110 3218 L 2110 3381 L 2110 3545 L 2206 3641 C 2259 3694 2298 3740 2293 3743 C 2287 3747 2246 3711 2200 3664 C 2154 3618 2116 3581 2114 3582 C 2113 3584 2127 3644 2146 3715 C 2180 3846 2188 3891 2171 3860 C 2167 3852 2150 3799 2135 3743 C 2119 3686 2104 3640 2100 3640 C 2097 3640 2082 3688 2066 3748 C 2050 3807 2034 3859 2029 3865 C 2016 3879 2017 3871 2056 3728 C 2078 3647 2089 3585 2086 3568 C 2080 3539 2010 3411 2000 3410 C 1990 3410 1920 3539 1914 3568 C 1910 3586 1922 3646 1944 3725 C 1982 3861 1985 3874 1972 3866 C 1968 3864 1951 3812 1935 3751 C 1918 3690 1902 3640 1899 3640 C 1896 3640 1880 3686 1865 3743 C 1837 3847 1821 3890 1820 3860 C 1820 3852 1835 3787 1854 3715 C 1873 3644 1887 3584 1885 3581 C 1883 3579 1845 3614 1801 3659 C 1757 3703 1715 3740 1708 3740 C 1701 3740 1739 3696 1793 3642 L 1890 3545 L 1890 3385 L 1891 3225 L 1833 2998 C 1801 2872 1773 2770 1770 2770 C 1767 2770 1739 2870 1707 2993 L 1649 3215 L 1650 3405 C 1650 3590 1651 3599 1685 3725 C 1723 3866 1724 3874 1711 3866 C 1706 3863 1689 3808 1674 3745 C 1659 3682 1643 3630 1640 3630 C 1637 3630 1622 3678 1606 3738 C 1577 3848 1561 3890 1560 3860 z M 1410 3659 C 1421 3619 1427 3584 1424 3581 C 1422 3578 1404 3592 1384 3611 C 1352 3644 1350 3648 1361 3680 C 1367 3699 1374 3721 1376 3729 C 1383 3751 1390 3736 1410 3659 z M 2637 3687 C 2649 3646 2649 3645 2613 3608 C 2593 3587 2575 3572 2572 3574 C 2570 3576 2574 3598 2580 3621 C 2586 3645 2596 3682 2601 3704 C 2613 3748 2620 3745 2637 3687 z M 1320 3591 C 1313 3562 1306 3541 1303 3544 C 1298 3549 1260 3690 1260 3705 C 1260 3710 1276 3698 1296 3678 L 1333 3642 L 1320 3591 z M 2726 3633 C 2700 3531 2699 3531 2685 3570 C 2677 3589 2671 3614 2671 3625 C 2670 3644 2729 3714 2738 3705 C 2741 3702 2735 3670 2726 3633 z M 1402 3573 C 1427 3546 1489 3455 1539 3369 L 1631 3212 L 1695 2971 L 1760 2730 L 1758 2413 L 1755 2095 L 1598 2366 L 1442 2637 L 1376 2879 L 1310 3122 L 1310 3307 C 1310 3450 1314 3506 1327 3556 C 1336 3591 1347 3620 1350 3620 C 1353 3620 1376 3599 1402 3573 z M 2673 3556 C 2686 3506 2690 3449 2690 3305 L 2690 3118 L 2625 2877 L 2559 2636 L 2409 2376 C 2326 2232 2254 2111 2249 2105 C 2244 2100 2240 2228 2240 2415 L 2240 2735 L 2304 2972 L 2367 3208 L 2459 3367 C 2537 3500 2627 3620 2650 3620 C 2653 3620 2664 3591 2673 3556 z M 1952 3454 L 1990 3388 L 1954 3324 C 1934 3289 1915 3260 1912 3260 C 1908 3260 1905 3319 1905 3390 C 1905 3462 1907 3520 1910 3520 C 1913 3520 1932 3490 1952 3454 z M 2095 3385 C 2095 3311 2093 3250 2090 3250 C 2087 3250 2068 3281 2048 3319 L 2011 3388 L 2048 3454 C 2068 3490 2087 3520 2090 3520 C 2093 3520 2095 3459 2095 3385 z M 2053 3283 C 2091 3217 2106 3170 2159 2968 L 2220 2730 L 2220 2388 L 2220 2045 L 2115 1645 C 2057 1425 2008 1241 2006 1235 C 2001 1221 2002 1216 1886 1651 L 1780 2047 L 1780 2387 L 1780 2727 L 1844 2971 C 1898 3177 1914 3226 1950 3288 C 1973 3327 1996 3360 2000 3360 C 2005 3360 2028 3325 2053 3283 z" stroke-linecap="round" />
</g>
</svg>